<svg viewBox="0 0 64 64" xmlns="http://www.w3.org/2000/svg">
  <!-- bg -->
  <rect width="64" height="64" fill="#e8d5c4"/>
  <!-- shoulders -->
  <ellipse cx="32" cy="80" rx="26" ry="20" fill="#1a1a1a"/>
  <!-- neck -->
  <rect x="25" y="53" width="14" height="14" rx="4" fill="#8b5e3c"/>
  <!-- face -->
  <ellipse cx="32" cy="38" rx="16" ry="18" fill="#8b5e3c"/>
  <!-- curly hair — irregular bumpy cap -->
  <path d="M14 35 C13 17 19 11 32 11 C45 11 51 17 50 35 C50 28 48 20 44 17 C40 14 36 13 32 13 C28 13 24 14 20 17 C16 20 14 28 14 35Z" fill="#1a0808"/>
  <!-- curly bumps on top -->
  <circle cx="20" cy="17" r="4" fill="#1a0808"/>
  <circle cx="26" cy="13" r="4.5" fill="#1a0808"/>
  <circle cx="32" cy="12" r="5" fill="#1a0808"/>
  <circle cx="38" cy="13" r="4.5" fill="#1a0808"/>
  <circle cx="44" cy="17" r="4" fill="#1a0808"/>
  <!-- low fade sides -->
  <rect x="13" y="30" width="4" height="10" rx="2" fill="#1a0808"/>
  <rect x="47" y="30" width="4" height="10" rx="2" fill="#1a0808"/>
  <!-- eyebrows — strong -->
  <path d="M23 31 Q26.5 29 30 30.5" stroke="#1a0808" stroke-width="1.6" fill="none" stroke-linecap="round"/>
  <path d="M34 30.5 Q37.5 29 41 31" stroke="#1a0808" stroke-width="1.6" fill="none" stroke-linecap="round"/>
  <!-- eyes -->
  <ellipse cx="26.5" cy="35.5" rx="2.2" ry="2" fill="#0f0808"/>
  <ellipse cx="37.5" cy="35.5" rx="2.2" ry="2" fill="#0f0808"/>
  <circle cx="27.5" cy="34.8" r="0.6" fill="rgba(255,255,255,0.45)"/>
  <circle cx="38.5" cy="34.8" r="0.6" fill="rgba(255,255,255,0.45)"/>
  <!-- nose -->
  <path d="M29.5 40 Q32 43 34.5 40" stroke="#6a3e20" stroke-width="1.1" fill="none" stroke-linecap="round"/>
  <!-- mouth -->
  <path d="M27.5 47 Q32 50 36.5 47" stroke="#6a3e20" stroke-width="1.6" fill="none" stroke-linecap="round"/>
  <!-- subtle beard -->
  <path d="M16 46 Q20 56 32 58 Q44 56 48 46" fill="rgba(0,0,0,0.1)"/>
</svg>
